<svg id="visual" viewBox="0 0 675 900" width="675" height="900" xmlns="http://www.w3.org/2000/svg" xmlns:xlink="http://www.w3.org/1999/xlink" version="1.1"><path d="M0 658L10.2 653.2C20.3 648.3 40.7 638.7 61.2 641.8C81.7 645 102.3 661 122.8 660.3C143.3 659.7 163.7 642.3 184 635.3C204.3 628.3 224.7 631.7 245.2 634.7C265.7 637.7 286.3 640.3 306.8 647C327.3 653.7 347.7 664.3 368.2 669.2C388.7 674 409.3 673 429.8 673.8C450.3 674.7 470.7 677.3 491 672.7C511.3 668 531.7 656 552.2 654.7C572.7 653.3 593.3 662.7 613.8 659C634.3 655.3 654.7 638.7 664.8 630.3L675 622L675 901L664.8 901C654.7 901 634.3 901 613.8 901C593.3 901 572.7 901 552.2 901C531.7 901 511.3 901 491 901C470.7 901 450.3 901 429.8 901C409.3 901 388.7 901 368.2 901C347.7 901 327.3 901 306.8 901C286.3 901 265.7 901 245.2 901C224.7 901 204.3 901 184 901C163.7 901 143.3 901 122.8 901C102.3 901 81.7 901 61.2 901C40.7 901 20.3 901 10.2 901L0 901Z" fill="#fa7268"></path><path d="M0 666L10.2 671.5C20.3 677 40.7 688 61.2 687C81.7 686 102.3 673 122.8 670.8C143.3 668.7 163.7 677.3 184 683C204.3 688.7 224.7 691.3 245.2 691.3C265.7 691.3 286.3 688.7 306.8 689.3C327.3 690 347.7 694 368.2 688.7C388.7 683.3 409.3 668.7 429.8 667.2C450.3 665.7 470.7 677.3 491 681.8C511.3 686.3 531.7 683.7 552.2 679.5C572.7 675.3 593.3 669.7 613.8 671C634.3 672.3 654.7 680.7 664.8 684.8L675 689L675 901L664.8 901C654.7 901 634.3 901 613.8 901C593.3 901 572.7 901 552.2 901C531.7 901 511.3 901 491 901C470.7 901 450.3 901 429.8 901C409.3 901 388.7 901 368.2 901C347.7 901 327.3 901 306.8 901C286.3 901 265.7 901 245.2 901C224.7 901 204.3 901 184 901C163.7 901 143.3 901 122.8 901C102.3 901 81.7 901 61.2 901C40.7 901 20.3 901 10.2 901L0 901Z" fill="#f46767"></path><path d="M0 712L10.2 710.5C20.3 709 40.7 706 61.2 707.7C81.7 709.3 102.3 715.7 122.8 714.5C143.3 713.3 163.7 704.7 184 706.7C204.3 708.7 224.7 721.3 245.2 725.3C265.7 729.3 286.3 724.7 306.8 721C327.3 717.3 347.7 714.7 368.2 709.7C388.7 704.7 409.3 697.3 429.8 699.5C450.3 701.7 470.7 713.3 491 718.8C511.3 724.3 531.7 723.7 552.2 719C572.7 714.3 593.3 705.7 613.8 704.5C634.3 703.3 654.7 709.7 664.8 712.8L675 716L675 901L664.8 901C654.7 901 634.3 901 613.8 901C593.3 901 572.7 901 552.2 901C531.7 901 511.3 901 491 901C470.7 901 450.3 901 429.8 901C409.3 901 388.7 901 368.2 901C347.7 901 327.3 901 306.8 901C286.3 901 265.7 901 245.2 901C224.7 901 204.3 901 184 901C163.7 901 143.3 901 122.8 901C102.3 901 81.7 901 61.2 901C40.7 901 20.3 901 10.2 901L0 901Z" fill="#ee5c67"></path><path d="M0 759L10.2 757C20.3 755 40.7 751 61.2 746.2C81.7 741.3 102.3 735.7 122.8 732.8C143.3 730 163.7 730 184 733.8C204.3 737.7 224.7 745.3 245.2 745.7C265.7 746 286.3 739 306.8 735.2C327.3 731.3 347.7 730.7 368.2 734.5C388.7 738.3 409.3 746.7 429.8 750.2C450.3 753.7 470.7 752.3 491 751.5C511.3 750.7 531.7 750.3 552.2 747.8C572.7 745.3 593.3 740.7 613.8 739.5C634.3 738.3 654.7 740.7 664.8 741.8L675 743L675 901L664.8 901C654.7 901 634.3 901 613.8 901C593.3 901 572.7 901 552.2 901C531.7 901 511.3 901 491 901C470.7 901 450.3 901 429.8 901C409.3 901 388.7 901 368.2 901C347.7 901 327.3 901 306.8 901C286.3 901 265.7 901 245.2 901C224.7 901 204.3 901 184 901C163.7 901 143.3 901 122.8 901C102.3 901 81.7 901 61.2 901C40.7 901 20.3 901 10.2 901L0 901Z" fill="#e75167"></path><path d="M0 769L10.2 772.5C20.3 776 40.7 783 61.2 783.2C81.7 783.3 102.3 776.7 122.8 776.5C143.3 776.3 163.7 782.7 184 779.5C204.3 776.3 224.7 763.7 245.2 759.7C265.7 755.7 286.3 760.3 306.8 764.5C327.3 768.7 347.7 772.3 368.2 772C388.7 771.7 409.3 767.3 429.8 764.8C450.3 762.3 470.7 761.7 491 765.8C511.3 770 531.7 779 552.2 777C572.7 775 593.3 762 613.8 761.7C634.3 761.3 654.7 773.7 664.8 779.8L675 786L675 901L664.8 901C654.7 901 634.3 901 613.8 901C593.3 901 572.7 901 552.2 901C531.7 901 511.3 901 491 901C470.7 901 450.3 901 429.8 901C409.3 901 388.7 901 368.2 901C347.7 901 327.3 901 306.8 901C286.3 901 265.7 901 245.2 901C224.7 901 204.3 901 184 901C163.7 901 143.3 901 122.8 901C102.3 901 81.7 901 61.2 901C40.7 901 20.3 901 10.2 901L0 901Z" fill="#df4667"></path><path d="M0 787L10.2 790.5C20.3 794 40.7 801 61.2 802.2C81.7 803.3 102.3 798.7 122.8 799.8C143.3 801 163.7 808 184 806.2C204.3 804.3 224.7 793.7 245.2 789.2C265.7 784.7 286.3 786.3 306.8 786.3C327.3 786.3 347.7 784.7 368.2 784.5C388.7 784.3 409.3 785.7 429.8 786.2C450.3 786.7 470.7 786.3 491 788.5C511.3 790.7 531.7 795.3 552.2 795C572.7 794.7 593.3 789.3 613.8 791.5C634.3 793.7 654.7 803.3 664.8 808.2L675 813L675 901L664.8 901C654.7 901 634.3 901 613.8 901C593.3 901 572.7 901 552.2 901C531.7 901 511.3 901 491 901C470.7 901 450.3 901 429.8 901C409.3 901 388.7 901 368.2 901C347.7 901 327.3 901 306.8 901C286.3 901 265.7 901 245.2 901C224.7 901 204.3 901 184 901C163.7 901 143.3 901 122.8 901C102.3 901 81.7 901 61.2 901C40.7 901 20.3 901 10.2 901L0 901Z" fill="#d73b67"></path><path d="M0 826L10.2 828.7C20.3 831.3 40.7 836.7 61.2 837.2C81.7 837.7 102.3 833.3 122.8 831C143.3 828.7 163.7 828.3 184 827C204.3 825.7 224.7 823.3 245.2 822.2C265.7 821 286.3 821 306.8 822.7C327.3 824.3 347.7 827.7 368.2 830.7C388.7 833.7 409.3 836.3 429.8 836C450.3 835.7 470.7 832.3 491 829.7C511.3 827 531.7 825 552.2 826C572.7 827 593.3 831 613.8 831C634.3 831 654.7 827 664.8 825L675 823L675 901L664.8 901C654.7 901 634.3 901 613.8 901C593.3 901 572.7 901 552.2 901C531.7 901 511.3 901 491 901C470.7 901 450.3 901 429.8 901C409.3 901 388.7 901 368.2 901C347.7 901 327.3 901 306.8 901C286.3 901 265.7 901 245.2 901C224.7 901 204.3 901 184 901C163.7 901 143.3 901 122.8 901C102.3 901 81.7 901 61.2 901C40.7 901 20.3 901 10.2 901L0 901Z" fill="#cf3068"></path><path d="M0 861L10.2 862.2C20.3 863.3 40.7 865.7 61.2 866.3C81.7 867 102.3 866 122.8 862.8C143.3 859.7 163.7 854.3 184 853.8C204.3 853.3 224.7 857.7 245.2 861.2C265.7 864.7 286.3 867.3 306.8 865.8C327.3 864.3 347.7 858.7 368.2 857.5C388.7 856.3 409.3 859.7 429.8 860.5C450.3 861.3 470.7 859.7 491 858.2C511.3 856.7 531.7 855.3 552.2 855.2C572.7 855 593.3 856 613.8 857.8C634.3 859.7 654.7 862.3 664.8 863.7L675 865L675 901L664.8 901C654.7 901 634.3 901 613.8 901C593.3 901 572.7 901 552.2 901C531.7 901 511.3 901 491 901C470.7 901 450.3 901 429.8 901C409.3 901 388.7 901 368.2 901C347.7 901 327.3 901 306.8 901C286.3 901 265.7 901 245.2 901C224.7 901 204.3 901 184 901C163.7 901 143.3 901 122.8 901C102.3 901 81.7 901 61.2 901C40.7 901 20.3 901 10.2 901L0 901Z" fill="#c62368"></path></svg>