<svg id="visual" viewBox="0 0 900 200" width="900" height="200" xmlns="http://www.w3.org/2000/svg" xmlns:xlink="http://www.w3.org/1999/xlink" version="1.1"><path d="M0 65L13.7 62.3C27.3 59.7 54.7 54.3 82 56C109.3 57.7 136.7 66.3 163.8 66C191 65.7 218 56.3 245.2 52.5C272.3 48.7 299.7 50.3 327 52C354.3 53.7 381.7 55.3 409 59.2C436.3 63 463.7 69 491 71.7C518.3 74.3 545.7 73.7 573 74C600.3 74.3 627.7 75.7 654.8 73C682 70.3 709 63.7 736.2 63C763.3 62.3 790.7 67.7 818 65.7C845.3 63.7 872.7 54.3 886.3 49.7L900 45L900 201L886.3 201C872.7 201 845.3 201 818 201C790.7 201 763.3 201 736.2 201C709 201 682 201 654.8 201C627.7 201 600.3 201 573 201C545.7 201 518.3 201 491 201C463.7 201 436.3 201 409 201C381.7 201 354.3 201 327 201C299.7 201 272.3 201 245.2 201C218 201 191 201 163.8 201C136.7 201 109.3 201 82 201C54.7 201 27.3 201 13.7 201L0 201Z" fill="#fa7268"></path><path d="M0 70L13.7 73C27.3 76 54.7 82 82 81.3C109.3 80.7 136.7 73.3 163.8 72.2C191 71 218 76 245.2 79.2C272.3 82.3 299.7 83.7 327 83.7C354.3 83.7 381.7 82.3 409 82.8C436.3 83.3 463.7 85.7 491 82.7C518.3 79.7 545.7 71.3 573 70.3C600.3 69.3 627.7 75.7 654.8 78.2C682 80.7 709 79.3 736.2 77C763.3 74.7 790.7 71.3 818 72C845.3 72.7 872.7 77.3 886.3 79.7L900 82L900 201L886.3 201C872.7 201 845.3 201 818 201C790.7 201 763.3 201 736.2 201C709 201 682 201 654.8 201C627.7 201 600.3 201 573 201C545.7 201 518.3 201 491 201C463.7 201 436.3 201 409 201C381.7 201 354.3 201 327 201C299.7 201 272.3 201 245.2 201C218 201 191 201 163.8 201C136.7 201 109.3 201 82 201C54.7 201 27.3 201 13.7 201L0 201Z" fill="#f46767"></path><path d="M0 95L13.7 94.2C27.3 93.3 54.7 91.7 82 92.7C109.3 93.7 136.7 97.3 163.8 96.7C191 96 218 91 245.2 92C272.3 93 299.7 100 327 102.2C354.3 104.3 381.7 101.7 409 99.7C436.3 97.7 463.7 96.3 491 93.7C518.3 91 545.7 87 573 88.3C600.3 89.7 627.7 96.3 654.8 99.3C682 102.3 709 101.7 736.2 99C763.3 96.3 790.7 91.7 818 91C845.3 90.3 872.7 93.7 886.3 95.3L900 97L900 201L886.3 201C872.7 201 845.3 201 818 201C790.7 201 763.3 201 736.2 201C709 201 682 201 654.8 201C627.7 201 600.3 201 573 201C545.7 201 518.3 201 491 201C463.7 201 436.3 201 409 201C381.7 201 354.3 201 327 201C299.7 201 272.3 201 245.2 201C218 201 191 201 163.8 201C136.7 201 109.3 201 82 201C54.7 201 27.3 201 13.7 201L0 201Z" fill="#ee5c67"></path><path d="M0 121L13.7 120C27.3 119 54.7 117 82 114.3C109.3 111.7 136.7 108.3 163.8 106.7C191 105 218 105 245.2 107.2C272.3 109.3 299.7 113.7 327 113.8C354.3 114 381.7 110 409 107.8C436.3 105.7 463.7 105.3 491 107.5C518.3 109.7 545.7 114.3 573 116.3C600.3 118.3 627.7 117.7 654.8 117.2C682 116.7 709 116.3 736.2 114.8C763.3 113.3 790.7 110.7 818 110C845.3 109.3 872.7 110.7 886.3 111.3L900 112L900 201L886.3 201C872.7 201 845.3 201 818 201C790.7 201 763.3 201 736.2 201C709 201 682 201 654.8 201C627.7 201 600.3 201 573 201C545.7 201 518.3 201 491 201C463.7 201 436.3 201 409 201C381.7 201 354.3 201 327 201C299.7 201 272.3 201 245.2 201C218 201 191 201 163.8 201C136.7 201 109.3 201 82 201C54.7 201 27.3 201 13.7 201L0 201Z" fill="#e75167"></path><path d="M0 127L13.7 128.8C27.3 130.7 54.7 134.3 82 134.5C109.3 134.7 136.7 131.3 163.8 131.3C191 131.3 218 134.7 245.2 132.8C272.3 131 299.7 124 327 121.8C354.3 119.7 381.7 122.3 409 124.7C436.3 127 463.7 129 491 128.7C518.3 128.3 545.7 125.7 573 124.2C600.3 122.7 627.7 122.3 654.8 124.7C682 127 709 132 736.2 131C763.3 130 790.7 123 818 122.8C845.3 122.7 872.7 129.3 886.3 132.7L900 136L900 201L886.3 201C872.7 201 845.3 201 818 201C790.7 201 763.3 201 736.2 201C709 201 682 201 654.8 201C627.7 201 600.3 201 573 201C545.7 201 518.3 201 491 201C463.7 201 436.3 201 409 201C381.7 201 354.3 201 327 201C299.7 201 272.3 201 245.2 201C218 201 191 201 163.8 201C136.7 201 109.3 201 82 201C54.7 201 27.3 201 13.7 201L0 201Z" fill="#df4667"></path><path d="M0 137L13.7 138.8C27.3 140.7 54.7 144.3 82 145C109.3 145.7 136.7 143.3 163.8 144C191 144.7 218 148.3 245.2 147.3C272.3 146.3 299.7 140.7 327 138.2C354.3 135.7 381.7 136.3 409 136.3C436.3 136.3 463.7 135.7 491 135.7C518.3 135.7 545.7 136.3 573 136.5C600.3 136.7 627.7 136.3 654.8 137.5C682 138.7 709 141.3 736.2 141.2C763.3 141 790.7 138 818 139.2C845.3 140.3 872.7 145.7 886.3 148.3L900 151L900 201L886.3 201C872.7 201 845.3 201 818 201C790.7 201 763.3 201 736.2 201C709 201 682 201 654.8 201C627.7 201 600.3 201 573 201C545.7 201 518.3 201 491 201C463.7 201 436.3 201 409 201C381.7 201 354.3 201 327 201C299.7 201 272.3 201 245.2 201C218 201 191 201 163.8 201C136.7 201 109.3 201 82 201C54.7 201 27.3 201 13.7 201L0 201Z" fill="#d73b67"></path><path d="M0 158L13.7 159.5C27.3 161 54.7 164 82 164.3C109.3 164.7 136.7 162.3 163.8 161.2C191 160 218 160 245.2 159.3C272.3 158.7 299.7 157.3 327 156.7C354.3 156 381.7 156 409 156.8C436.3 157.7 463.7 159.3 491 161C518.3 162.7 545.7 164.3 573 164.2C600.3 164 627.7 162 654.8 160.5C682 159 709 158 736.2 158.5C763.3 159 790.7 161 818 161C845.3 161 872.7 159 886.3 158L900 157L900 201L886.3 201C872.7 201 845.3 201 818 201C790.7 201 763.3 201 736.2 201C709 201 682 201 654.8 201C627.7 201 600.3 201 573 201C545.7 201 518.3 201 491 201C463.7 201 436.3 201 409 201C381.7 201 354.3 201 327 201C299.7 201 272.3 201 245.2 201C218 201 191 201 163.8 201C136.7 201 109.3 201 82 201C54.7 201 27.3 201 13.7 201L0 201Z" fill="#cf3068"></path><path d="M0 178L13.7 178.7C27.3 179.3 54.7 180.7 82 181C109.3 181.3 136.7 180.7 163.8 178.8C191 177 218 174 245.2 173.7C272.3 173.3 299.7 175.7 327 177.7C354.3 179.7 381.7 181.3 409 180.7C436.3 180 463.7 177 491 176.3C518.3 175.7 545.7 177.3 573 177.7C600.3 178 627.7 177 654.8 176.2C682 175.3 709 174.7 736.2 174.7C763.3 174.7 790.7 175.3 818 176.3C845.3 177.3 872.7 178.7 886.3 179.3L900 180L900 201L886.3 201C872.7 201 845.3 201 818 201C790.7 201 763.3 201 736.2 201C709 201 682 201 654.8 201C627.7 201 600.3 201 573 201C545.7 201 518.3 201 491 201C463.7 201 436.3 201 409 201C381.7 201 354.3 201 327 201C299.7 201 272.3 201 245.2 201C218 201 191 201 163.8 201C136.7 201 109.3 201 82 201C54.7 201 27.3 201 13.7 201L0 201Z" fill="#c62368"></path></svg>